<svg width="643" height="626" viewBox="0 0 643 626" fill="none" xmlns="http://www.w3.org/2000/svg">
<path d="M574.597 140.29C537.219 96.3613 485.177 64.7392 425.853 49.9084C366.529 35.0775 302.935 37.7909 244.09 57.6636C185.244 77.5363 134.136 113.559 98.0138 160.624C61.8915 207.688 42.5891 263.404 42.8443 319.869C43.0996 376.333 62.8995 430.681 99.4358 475.202C135.972 519.723 187.39 552.158 246.396 567.907C305.402 583.655 369.001 581.917 428.172 562.939C487.344 543.961 539.083 508.707 576.052 462.177L499.602 413.048C474.53 444.604 439.442 468.512 399.314 481.383C359.185 494.253 316.054 495.432 276.037 484.752C236.021 474.072 201.151 452.075 176.373 421.882C151.595 391.689 138.167 354.832 137.994 316.539C137.821 278.246 150.911 240.46 175.408 208.543C199.906 176.625 234.566 152.195 274.473 138.718C314.381 125.241 357.509 123.401 397.741 133.458C437.973 143.516 473.266 164.962 498.615 194.753L574.597 140.29Z" fill="#E5E5E5"/>
</svg>
