<svg width="67" height="88" viewBox="0 0 67 88" fill="none" xmlns="http://www.w3.org/2000/svg">
<path d="M11.8314 76.7562C11.1444 77.9539 11.5585 79.4817 12.7562 80.1687C13.9539 80.8556 15.4817 80.4415 16.1686 79.2438L11.8314 76.7562ZM31.8043 46.9565L6.84588 61.462L31.8872 75.8239L31.8043 46.9565ZM16.1686 79.2438L22.779 67.7181L18.4417 65.2305L11.8314 76.7562L16.1686 79.2438Z" fill="#9A9ACE"/>
<path d="M55.1686 11.2438C55.8556 10.0461 55.4415 8.51829 54.2438 7.83137C53.0461 7.14445 51.5183 7.55853 50.8314 8.75623L55.1686 11.2438ZM34.3478 42.5217L59.3063 28.0163L34.265 13.6543L34.3478 42.5217ZM50.8314 8.75623L43.3732 21.7602L47.7105 24.2477L55.1686 11.2438L50.8314 8.75623Z" fill="#9A9ACE"/>
</svg>
